<svg xmlns="http://www.w3.org/2000/svg" viewBox="0 0 1059.02 1060.13"><defs><style>.cls-1{fill:#f6c934;}.cls-2{fill:#fff;stroke:#fff;stroke-miterlimit:10;}</style></defs><g id="fondo"><path class="cls-1" d="M544.49,8.87H917.77S1075,9,1073,154s0,772,0,772-5,143-147,143H155.19S14,1068,14,926V152.87S11.29,8.74,153.65,8.87,544.49,8.87,544.49,8.87Z" transform="translate(-14 -8.87)"/></g><g id="foco-exterior"><path class="cls-2" d="M747,10S896,73,880,288,736,530,719,576c-40,66-32,144-32,144s2,56-38,61-228,10-221,55c20,21,26,17,26,17s128-74,190-37,49,92-68,92-120-10-120-10-46,26-14,55c68-32,125-42,205-16s26,101-71,93c-96,1-120-22-129-24-4,25,48,62,48,62H432.35S390,1023,412,983c-28-38-40-52,2-103-40-36-47-66,18-106,72-27,93-23,93-23l116-9s6-1,7-22-11-149,79-215S840,340,840,288,848.32,58,642.16,10h-161S293,41,254,216s92,278,92,278,134,99,127,226c-14,30-40,6-41,0,0-9,7-94-115-198S206,287,206,287,196.35,99,362.68,10Z" transform="translate(-14 -8.87)"/></g><g id="foco-interior"><path class="cls-2" d="M526.5,750.5a119,119,0,0,0,29,0c0-32-23-159-35-175-9.72-33.51-147.77-255.92-117-375,12-14,46,81,47,86s36,133,55,133,15-17,15-17-35-123-19-137c23-3,38.9,108,54,123.5,19,10.5,26-10.5,26-10.5s-45-128-27-134c23,10,48,94,48,94s20,50,39,15c-12-53-79-253-56-254s42,54,48,76,45,219,69,220,9-34,9-34-54-308-117-295c-58,8-49,56-25,150-21-6-44,8-44,25-41-15-56,2-56,15-9-34-26.87-99.1-71.44-85.05C354.5,190.5,363.5,257.5,391.5,358.5s70.27,160.34,70.27,160.34S526.5,645.5,526.5,750.5Z" transform="translate(-14 -8.87)"/></g></svg>